<?xml version="1.0" standalone="no"?>
<!DOCTYPE svg PUBLIC "-//W3C//DTD SVG 20010904//EN"
 "http://www.w3.org/TR/2001/REC-SVG-20010904/DTD/svg10.dtd">
<svg version="1.0" xmlns="http://www.w3.org/2000/svg"
 width="500.000000pt" height="500.000000pt" viewBox="0 0 500.000000 500.000000"
 preserveAspectRatio="xMidYMid meet">
<metadata>
Created by potrace 1.16, written by Peter Selinger 2001-2019
</metadata>
<g transform="translate(0.000000,500.000000) scale(0.100000,-0.100000)"
fill="#000000" stroke="none">
<path d="M813 4678 c6 -16 617 -1071 624 -1078 3 -3 18 11 35 30 21 25 28 42
24 61 -6 30 30 112 65 149 33 35 87 66 129 75 46 9 94 53 79 72 -6 7 -15 10
-20 7 -5 -3 -9 -3 -9 0 0 22 181 108 196 93 14 -13 -7 -38 -37 -44 -19 -4 -26
-9 -18 -13 8 -6 3 -13 -17 -24 -39 -21 -114 -89 -89 -80 11 4 36 21 55 39 20
19 51 35 73 39 27 5 37 12 37 25 0 11 7 22 16 25 13 5 14 9 4 21 -18 22 15 59
40 45 15 -8 17 -6 13 9 -4 16 4 19 57 24 34 3 63 7 66 9 4 5 -258 492 -278
515 -15 19 -1053 19 -1045 1z"/>
<path d="M3147 4648 c-14 -24 -80 -146 -148 -273 -67 -126 -125 -232 -128
-235 -11 -9 -12 -32 -1 -25 20 12 163 -126 146 -142 -5 -5 -67 40 -118 85 -14
14 -48 28 -74 33 -26 5 -57 16 -68 24 -69 51 -90 65 -98 65 -5 0 4 -11 19 -25
l28 -24 -27 -1 c-17 0 -31 7 -38 20 -6 11 -21 21 -33 21 -12 1 3 7 33 15 43
10 46 12 15 9 -22 -3 -53 -5 -70 -5 -24 0 -27 -2 -15 -11 11 -8 7 -9 -17 -5
-18 3 -48 8 -65 11 -29 4 -30 3 -8 -4 17 -6 20 -9 8 -10 -10 -1 -18 -5 -18
-10 0 -6 16 -7 35 -4 23 4 43 0 60 -11 14 -9 46 -19 72 -22 27 -4 58 -13 70
-20 12 -8 30 -14 40 -14 10 0 27 -7 37 -15 23 -18 40 -20 30 -4 -23 38 109
-41 205 -123 30 -25 60 -44 68 -41 7 3 19 0 27 -6 7 -6 16 -8 19 -4 4 3 7 1 7
-6 0 -7 4 -10 9 -6 5 3 12 1 15 -4 13 -21 -18 -22 -46 -1 -16 12 -32 19 -35
16 -8 -8 17 -36 32 -36 19 0 65 -40 65 -56 0 -8 -10 -14 -22 -14 -22 -1 -21
-2 5 -16 18 -10 27 -23 27 -39 0 -29 33 -35 48 -8 9 14 11 14 21 -5 10 -19 8
-23 -24 -36 -19 -8 -35 -20 -35 -26 0 -6 -11 -15 -25 -20 -22 -8 -23 -12 -14
-40 13 -36 24 -40 15 -5 -5 18 -1 27 16 36 19 10 25 8 44 -14 20 -23 23 -24
28 -9 3 9 3 -3 0 -28 -5 -49 -19 -71 -39 -64 -7 3 -16 1 -20 -5 -3 -6 -15 -11
-26 -11 -24 0 -25 -17 -1 -24 9 -3 -3 -4 -28 -2 -25 2 -54 7 -64 12 -15 6 -17
4 -11 -7 5 -7 -6 -4 -26 8 -37 24 -48 52 -39 97 6 34 59 69 102 68 20 0 25 3
21 14 -3 8 -11 13 -17 11 -6 -3 -31 -13 -56 -22 -25 -10 -51 -23 -57 -28 -10
-7 -13 -4 -13 11 0 12 8 26 19 31 23 13 33 45 17 61 -8 8 -7 14 6 21 19 11 20
8 -26 99 -70 135 -122 191 -178 189 -18 -1 -15 -3 11 -10 19 -6 35 -18 38 -29
3 -11 9 -18 13 -15 4 2 16 -5 26 -17 11 -12 14 -18 7 -15 -6 4 -14 3 -18 -3
-3 -6 1 -13 9 -16 9 -3 16 -14 16 -23 0 -9 7 -26 15 -37 26 -38 45 -107 34
-121 -9 -10 -17 -10 -40 2 -15 8 -32 22 -37 31 -6 10 -7 -5 -4 -40 3 -40 1
-56 -8 -56 -8 0 -10 9 -6 26 8 32 0 60 -20 68 -12 5 -14 -1 -9 -27 6 -34 -19
-98 -42 -105 -9 -2 -9 6 -2 33 15 52 0 63 -25 19 -24 -43 -107 -104 -141 -104
-15 0 -26 -8 -30 -20 -7 -21 -45 -28 -45 -9 0 6 -12 9 -27 6 -16 -2 -22 -2
-15 0 17 6 15 23 -3 23 -9 0 -12 6 -8 16 5 12 15 15 47 10 39 -6 43 -4 86 40
l45 47 -47 -27 c-43 -25 -50 -26 -90 -16 -43 12 -55 11 -51 -2 4 -11 -55 -10
-93 1 -37 11 -110 -1 -107 -17 4 -19 -53 -14 -97 7 -22 11 -40 16 -40 11 0 -4
20 -28 44 -53 45 -47 99 -68 119 -48 19 19 57 13 57 -8 0 -11 -4 -23 -10 -26
-5 -3 -10 -2 -10 4 0 5 -14 3 -30 -6 -38 -18 -70 -11 -101 22 -13 13 -30 25
-36 25 -7 0 -20 11 -29 25 -9 14 -19 24 -21 21 -3 -3 11 -26 31 -52 41 -54 40
-68 -4 -36 -41 31 -49 28 -56 -19 -7 -39 -26 -69 -44 -69 -20 0 -18 20 6 55
14 21 23 39 21 41 -2 2 -21 -5 -43 -16 -44 -23 -74 -20 -107 11 -24 22 -32 12
-23 -26 5 -20 13 -25 38 -25 l32 0 -22 -20 c-12 -11 -26 -20 -32 -20 -6 0 -8
-5 -5 -10 10 -17 -14 -39 -50 -46 -37 -7 -108 24 -119 51 -3 9 -10 13 -16 10
-38 -23 -83 46 -79 121 3 50 -3 61 -21 39 -7 -8 -19 -15 -26 -15 -8 0 -15 -6
-15 -12 -1 -7 -5 1 -9 17 l-8 30 -1 -32 c0 -18 4 -33 9 -33 6 0 10 -8 10 -18
0 -10 12 -22 29 -28 27 -11 47 -56 34 -77 -3 -5 -33 -6 -67 -2 -33 4 -59 5
-56 2 3 -3 43 -21 90 -39 95 -39 112 -58 53 -58 -40 0 -84 -22 -71 -35 4 -4
23 0 42 9 51 24 81 20 144 -22 92 -61 115 -68 165 -48 23 9 53 26 67 37 20 17
21 19 5 13 -23 -9 -116 -16 -97 -8 6 3 12 12 12 20 0 8 5 14 12 14 9 0 9 3 0
12 -14 14 -16 32 -2 23 10 -6 125 48 135 65 3 5 23 11 43 11 36 1 36 2 7 8
-24 5 -31 12 -33 35 -4 35 14 49 42 31 20 -13 121 -42 178 -52 20 -4 36 2 58
20 54 46 132 45 350 -3 52 -11 107 -21 123 -22 15 0 33 -8 40 -16 10 -13 13
-9 17 24 4 33 8 39 30 39 16 0 29 -8 37 -25 12 -23 11 -25 -13 -28 -33 -4 -48
-44 -37 -97 8 -35 6 -44 -16 -73 -32 -44 -95 -75 -148 -73 -36 2 -43 -1 -43
-18 0 -11 -14 -27 -34 -39 -49 -29 -62 -77 -48 -174 6 -41 9 -90 6 -109 -3
-19 1 -65 10 -102 22 -93 21 -134 -3 -147 -29 -15 -78 -12 -106 6 -25 16 -108
24 -120 12 -16 -16 5 -38 36 -38 18 0 46 -10 63 -22 17 -13 47 -31 66 -41 85
-44 101 -77 36 -77 -17 0 -36 -4 -41 -9 -6 -6 -55 -7 -125 -2 -63 4 -119 4
-123 0 -15 -13 45 -19 191 -21 103 -2 146 -6 154 -15 8 -10 2 -16 -26 -28 -57
-24 -144 -29 -201 -11 -27 8 -50 14 -52 13 -1 -2 12 -14 30 -28 28 -23 44 -26
143 -32 125 -7 134 -4 134 55 0 21 7 50 16 64 19 28 21 156 3 202 -13 33 -41
270 -34 283 3 5 1 18 -6 31 -10 18 -8 24 7 35 10 7 12 13 6 13 -23 0 -12 17
28 43 57 37 140 59 140 37 0 -5 -7 -10 -15 -10 -8 0 -15 -7 -15 -15 0 -18 5
-18 32 -4 17 9 19 8 16 -7 -2 -10 -14 -24 -28 -31 l-25 -13 27 0 c17 0 33 9
42 22 12 17 16 18 16 6 0 -8 -18 -34 -40 -57 l-40 -41 29 0 c27 0 60 21 62 38
5 43 12 68 20 70 5 2 9 10 9 18 0 8 9 14 21 14 20 0 21 -4 17 -82 -3 -73 -9
-95 -49 -183 -26 -55 -54 -125 -64 -155 -9 -30 -27 -76 -41 -103 -13 -26 -28
-66 -35 -90 -26 -99 -68 -169 -169 -289 -39 -46 -120 -69 -174 -50 -18 7 -41
12 -52 12 -11 0 -28 6 -39 13 -11 8 -35 19 -53 25 -39 13 -172 112 -190 141
-7 12 -18 21 -25 21 -25 0 -137 144 -137 176 0 8 -4 23 -10 33 -5 10 -10 35
-12 56 -1 20 -8 39 -14 42 -7 2 -11 17 -9 32 4 28 0 37 -50 126 -48 84 -55 99
-61 133 -9 45 -24 50 -24 8 0 -44 -18 -48 -27 -6 -3 17 -12 30 -19 30 -18 0
-18 41 1 66 19 25 19 48 0 64 -26 22 -16 28 27 18 38 -8 44 -6 66 16 l25 24
-29 25 c-21 18 -45 26 -91 31 -35 4 -74 12 -88 18 -19 8 -28 8 -40 -2 -20 -17
-52 5 -106 72 -38 49 -41 56 -35 98 4 31 3 40 -4 30 -5 -8 -10 -41 -10 -73 l0
-58 -30 16 c-16 9 -30 23 -30 33 -1 16 -1 16 -11 -1 -14 -24 -2 -75 19 -81 13
-4 17 -18 17 -56 1 -42 -2 -50 -17 -50 -13 0 -18 8 -19 33 -1 31 -2 31 -9 -8
-4 -22 -6 -42 -4 -44 2 -2 17 -5 34 -6 34 -3 60 -21 60 -41 0 -18 -4 -17 -41
2 -30 15 -30 15 -27 -8 2 -19 10 -23 45 -26 40 -3 43 -6 64 -53 13 -27 26 -49
30 -49 16 0 49 -91 40 -109 -11 -20 5 -45 37 -55 18 -6 21 -12 15 -34 -16 -55
1 -217 19 -191 7 10 8 6 5 -13 -4 -29 20 -60 65 -82 13 -6 27 -21 33 -34 11
-24 28 -31 19 -7 -4 8 -1 22 6 30 20 25 60 -18 60 -63 l0 -35 -23 21 c-20 19
-23 20 -23 4 0 -10 -261 -461 -581 -1002 -319 -542 -591 -1002 -603 -1022
l-22 -38 529 0 528 0 118 209 c65 114 119 210 122 212 2 3 118 -14 257 -38
139 -23 258 -40 263 -38 6 2 0 4 -12 4 -12 1 -25 6 -29 12 -13 22 -65 36 -105
29 -22 -4 -39 -3 -39 2 0 5 -21 6 -47 3 -34 -3 -42 -2 -28 4 19 9 19 10 -2 10
-16 1 -21 6 -17 16 8 19 -15 19 -52 0 -16 -8 -38 -14 -49 -14 -17 1 -17 2 3 7
13 4 22 12 20 17 -2 6 13 11 32 13 19 2 41 9 49 15 16 13 93 12 120 -2 19 -11
61 -4 61 9 0 11 84 22 114 14 l26 -6 -21 -29 c-23 -32 -11 -38 26 -13 13 9 30
14 37 11 9 -3 6 -7 -7 -13 -33 -13 -79 -94 -54 -94 5 0 9 4 9 9 0 5 11 8 25 8
14 0 34 8 44 17 21 19 98 35 88 18 -5 -6 1 -8 15 -5 51 12 189 54 286 87 56
19 109 37 117 38 11 2 59 -75 158 -252 l143 -255 513 -3 c409 -2 512 0 508 10
-3 7 -179 307 -391 667 -382 645 -386 654 -368 675 10 12 25 38 34 58 17 36
17 37 -5 44 -12 4 -28 15 -35 25 -9 13 -22 17 -42 15 -17 -2 -30 1 -30 6 0 5
-13 14 -29 19 -25 9 -65 70 -258 396 -125 213 -229 390 -231 395 -2 4 262 464
587 1022 325 558 591 1017 591 1020 0 3 -229 6 -510 6 l-509 0 -24 -42z
m-1457 -1699 c33 -14 47 -25 43 -35 -3 -8 1 -14 11 -14 18 0 50 -66 60 -122 6
-31 4 -38 -10 -38 -23 0 -58 48 -64 90 -4 25 -11 36 -25 38 -33 5 -64 35 -71
70 -8 38 -7 38 56 11z m304 -705 c48 -56 76 -127 76 -190 0 -30 4 -54 9 -54
12 0 20 -60 9 -66 -5 -3 -2 -14 7 -24 14 -16 21 -34 24 -62 1 -6 77 -48 87
-48 1 0 4 14 8 31 5 28 1 36 -33 65 -44 38 -72 91 -79 149 -2 22 -8 46 -12 54
-9 16 11 41 32 41 7 0 38 -16 69 -35 31 -19 81 -41 111 -49 79 -20 157 -62
201 -107 22 -23 47 -39 60 -38 12 0 36 -2 54 -5 41 -7 131 39 189 96 26 24 49
39 60 36 28 -5 52 -64 59 -142 10 -123 29 -117 65 22 12 47 14 47 70 30 26 -9
40 -19 40 -30 0 -12 8 -17 28 -16 15 1 98 -18 184 -41 87 -22 169 -41 184 -41
24 0 26 -3 22 -40 -4 -47 5 -51 29 -12 9 15 18 28 19 30 7 10 44 -21 44 -37 0
-21 -56 -71 -79 -71 -9 0 -23 -15 -31 -33 -14 -30 -162 -150 -202 -163 -10 -4
-18 -12 -18 -20 0 -7 -8 -28 -18 -46 -10 -18 -24 -49 -32 -68 -8 -19 -23 -48
-35 -65 -12 -16 -30 -47 -40 -67 -22 -43 -37 -52 -58 -35 -25 21 -98 127 -118
173 -22 48 -29 54 -29 25 0 -27 115 -197 150 -223 18 -13 26 -26 22 -34 -25
-45 -281 -181 -372 -199 -12 -2 -28 -9 -35 -15 -21 -17 -119 -48 -208 -64
-181 -34 -333 -23 -543 40 -63 19 -90 34 -129 69 -27 25 -51 45 -54 45 -3 1
-16 17 -28 36 -13 19 -17 32 -10 28 9 -5 9 -4 0 7 -22 23 -16 40 12 33 27 -7
35 12 13 34 -9 9 -9 17 0 34 6 13 13 39 14 58 3 34 4 35 54 40 28 3 59 11 68
19 8 7 41 66 72 129 l57 117 24 -70 c13 -39 26 -95 30 -126 l6 -57 -39 -6
c-65 -11 -78 -29 -16 -21 47 5 52 4 52 -14 0 -29 17 -35 22 -7 11 55 -21 381
-44 451 -5 17 -14 55 -18 85 -11 71 -46 215 -64 260 -21 53 -46 144 -46 167 0
11 -3 23 -7 26 -3 4 -7 22 -8 41 -1 32 0 33 18 21 10 -7 33 -30 51 -51z m-68
-618 c19 -49 -69 -176 -122 -176 -36 0 -49 -9 -58 -37 -9 -27 -35 -37 -70 -24
-17 7 -26 18 -26 32 0 12 3 19 6 16 4 -4 14 7 23 23 15 27 81 80 100 80 8 0
39 24 99 78 29 26 40 28 48 8z"/>
<path d="M2160 1715 c0 -14 4 -33 9 -43 4 -9 26 -55 47 -102 21 -47 41 -88 44
-92 3 -3 22 -10 43 -13 34 -7 38 -5 37 11 -4 36 0 45 26 54 39 15 30 54 -14
58 -51 5 -90 47 -93 99 -1 20 -45 53 -71 53 -23 0 -28 -4 -28 -25z"/>
<path d="M2285 3198 c33 -11 64 -24 68 -28 11 -10 -111 -39 -203 -48 -66 -6
-75 -10 -78 -28 -4 -31 22 -37 66 -14 53 28 188 45 227 29 68 -26 170 -14 173
22 0 8 3 23 7 34 5 18 1 20 -62 23 -37 2 -99 9 -138 17 -102 22 -132 18 -60
-7z"/>
</g>
</svg>
