<?xml version="1.0" standalone="no"?>
<!DOCTYPE svg PUBLIC "-//W3C//DTD SVG 20010904//EN"
 "http://www.w3.org/TR/2001/REC-SVG-20010904/DTD/svg10.dtd">
<svg version="1.0" xmlns="http://www.w3.org/2000/svg"
 width="614.000000pt" height="609.000000pt" viewBox="0 0 614.000000 609.000000"
 preserveAspectRatio="xMidYMid meet">
<metadata>
Created by potrace 1.16, written by Peter Selinger 2001-2019
</metadata>
<g transform="translate(0.000000,609.000000) scale(0.100000,-0.100000)"
fill="#000000" stroke="none">
<path d="M2965 6023 c-517 -21 -994 -163 -1435 -426 -333 -199 -662 -505 -896
-832 -480 -670 -657 -1527 -484 -2345 81 -382 261 -792 483 -1100 424 -589
1032 -1004 1697 -1159 209 -48 365 -65 595 -64 395 1 649 54 931 196 311 156
536 405 609 675 22 81 30 252 16 341 -50 318 -255 549 -571 645 -278 84 -490
91 -980 35 -233 -27 -328 -28 -371 -3 -52 31 -73 67 -73 127 0 68 28 121 99
185 105 96 257 151 415 152 118 0 315 27 439 60 399 106 646 330 721 654 20
86 22 114 17 264 -11 327 -87 530 -267 712 -149 150 -331 242 -590 297 -121
26 -505 26 -634 0 -264 -53 -448 -149 -613 -318 -120 -122 -187 -245 -234
-426 -49 -191 -39 -416 26 -588 94 -251 304 -449 578 -546 37 -13 67 -27 67
-30 0 -4 -28 -18 -62 -33 -213 -92 -381 -223 -441 -345 -30 -62 -32 -72 -32
-176 1 -91 5 -120 23 -167 54 -135 175 -241 335 -295 78 -26 91 -27 267 -27
156 1 206 5 320 27 262 50 352 61 505 61 249 1 401 -48 508 -163 71 -77 98
-145 104 -266 10 -186 -55 -322 -202 -425 -106 -73 -306 -153 -475 -190 -154
-33 -272 -43 -463 -37 -304 9 -510 58 -837 200 -727 315 -1261 933 -1464 1694
-111 415 -113 885 -7 1295 99 381 305 767 572 1067 238 268 578 511 906 647
409 170 860 237 1268 189 603 -71 1107 -311 1525 -725 428 -424 681 -944 751
-1545 13 -113 12 -451 -1 -581 -35 -341 -153 -674 -318 -904 -100 -139 -112
-191 -68 -287 34 -73 87 -106 176 -111 90 -5 130 16 204 108 342 423 508 1162
421 1870 -144 1166 -972 2147 -2100 2488 -292 88 -666 137 -960 125z m215
-1929 c264 -80 380 -295 380 -705 0 -289 -71 -480 -220 -593 -73 -54 -156 -83
-275 -95 -327 -32 -545 117 -626 426 -40 152 -36 452 8 603 59 206 192 334
389 375 87 18 268 13 344 -11z"/>
<path d="M4302 4544 c-212 -106 -193 -416 31 -490 114 -38 239 3 304 100 63
92 68 186 15 280 -70 125 -224 173 -350 110z"/>
</g>
</svg>
